<?xml version="1.0" encoding="utf-8"?>
<!-- Generator: Adobe Illustrator 18.1.0, SVG Export Plug-In . SVG Version: 6.00 Build 0)  -->
<svg version="1.1" id="Layer_1" xmlns="http://www.w3.org/2000/svg" xmlns:xlink="http://www.w3.org/1999/xlink" x="0px" y="0px"
	 viewBox="0 0 150 150" enable-background="new 0 0 150 150" xml:space="preserve">
<g>
	<g>
		<path fill="#AFB1B4" d="M58.7,77.1c-3.6,2.7-6,7.1-6.2,12.1l6.6-3.5C58.5,82.2,58.5,79.1,58.7,77.1z"/>
		<path fill="#AFB1B4" d="M65.1,98.6l-6.8,3.4c2.5,1.9,5.5,3.1,8.9,3.1c1.6,0,3.1-0.3,4.5-0.7C69,102.6,66.8,100.7,65.1,98.6z"/>
		<path fill="#AFB1B4" d="M72.7,104c5.3-2.2,9-7.5,9.2-13.8l-16,8C67.7,100.3,69.9,102.3,72.7,104z"/>
		<path fill="#AFB1B4" d="M59.3,86.5l-6.8,3.6c0.1,2.1,0.5,4.2,1.4,6l7.2-4.3C60.2,90.1,59.6,88.3,59.3,86.5z"/>
		<path fill="#AFB1B4" d="M61.4,92.7L54.2,97c0.9,1.7,2,3.2,3.4,4.4l7-3.5C63.2,96.2,62.2,94.5,61.4,92.7z"/>
		<path fill="#AFB1B4" d="M65.4,97.5L82,89.2c-0.1-2.7-0.8-5.3-2.1-7.5L62.1,92.3C62.9,94.1,64,95.8,65.4,97.5z"/>
		<path fill="#AFB1B4" d="M59.9,85.2l5.1-2.7l0.4,0.8l-5.3,2.8c0.4,1.7,0.9,3.5,1.7,5.4L79.4,81c-2.7-4.1-7.1-6.7-12.2-6.7
			c-2.8,0-5.4,0.8-7.6,2.2C59.4,78.3,59.2,81.5,59.9,85.2z"/>
		<path fill="#CF7046" d="M128.6,113.4c-5.2,0.2-9.7,2.7-12.5,6.5l-15-10c3.2-6,5.1-12.8,5.1-20.2c0-14.2-7-26.8-17.6-34.1l12-18
			c1.7,0.5,3.5,0.8,5.4,0.7c9.1-0.4,16.2-8.4,15.8-17.9c-0.4-9.5-8.1-16.9-17.2-16.6c-9.1,0.4-16.2,8.4-15.8,17.9
			c0.2,5.6,3,10.5,7.1,13.5L84.2,53c-5.1-2.6-10.9-4.1-17-4.1c-13,0-24.5,6.6-31.6,16.8l-7.5-6.4c0.2-0.6,0.3-1.2,0.3-1.9
			c0.4-5.2-3.7-9.7-9.1-10.1C14,46.9,9.3,50.8,8.9,55.9c-0.4,5.2,3.7,9.7,9.1,10.1c2.8,0.2,5.4-0.7,7.3-2.4l7.6,6.5
			c-3,5.8-4.8,12.5-4.8,19.5c0,9.4,3,18.1,8.2,25l-9.5,5.7c-0.7-0.6-1.6-1.1-2.4-1.5c-5.8-2.4-12.5,0.5-15,6.5
			c-2.5,6,0.1,12.8,5.8,15.3c5.8,2.4,12.5-0.5,15-6.5c1.4-3.3,1.2-6.8-0.1-9.7l9.7-5.8c7.1,7.3,16.8,11.8,27.5,11.8
			c12.7,0,24.1-6.4,31.2-16.2l15.4,10.2c-0.5,1.5-0.7,3.2-0.6,4.8c0.3,8.5,7.8,15.1,16.7,14.8c8.9-0.4,15.8-7.5,15.5-16
			C145,119.6,137.5,113,128.6,113.4z M67.2,114.2c-13,0-23.5-11-23.5-24.5c0-13.5,10.5-24.5,23.5-24.5c13,0,23.5,11,23.5,24.5
			C90.7,103.2,80.2,114.2,67.2,114.2z"/>
	</g>
	<g>
		<ellipse opacity="0.42" fill="#FFFFFF" cx="105.4" cy="12.2" rx="7.8" ry="5.7"/>
		<ellipse opacity="0.42" fill="#FFFFFF" cx="130.8" cy="119.9" rx="7.8" ry="5.7"/>
		<ellipse opacity="0.42" fill="#FFFFFF" cx="18.5" cy="53.3" rx="5.9" ry="4.3"/>
		<ellipse opacity="0.42" fill="#FFFFFF" cx="18.5" cy="124.1" rx="4.6" ry="3.4"/>
	</g>
</g>
</svg>
